<svg width="29" height="30" viewBox="0 0 29 30" fill="none" xmlns="http://www.w3.org/2000/svg">
<path fill-rule="evenodd" clip-rule="evenodd" d="M28.1372 20.9657C28.1861 21.0861 28.235 21.2064 28.2837 21.3234C28.6729 22.4349 28.7933 23.4848 28.5525 24.5348C28.2221 26.7564 26.7508 28.6785 24.6481 29.5198C23.8964 29.8502 23.0564 30 22.2151 30C21.9743 30 21.6747 29.9706 21.434 29.9398C20.4428 29.8194 19.4223 29.4904 18.4312 28.9193C17.23 28.2291 16.0289 27.238 14.7074 25.7961C13.3859 27.238 12.2156 28.2291 10.9837 28.9193C9.99252 29.4904 8.97199 29.8194 7.98086 29.9398C7.74007 29.9706 7.44049 30 7.19971 30C6.35837 30 5.54782 29.8502 4.76667 29.5198C2.69481 28.6799 1.19271 26.7872 0.862332 24.5348C0.712542 23.454 0.832934 22.4027 1.22351 21.2912C1.3635 20.9272 1.51329 20.566 1.67428 20.2105C1.78146 19.9699 1.88864 19.7352 1.9931 19.5065C2.12332 19.2213 2.24932 18.9454 2.36583 18.679L2.39523 18.6188C4.46709 14.1139 6.71954 9.54876 9.03219 5.04386L9.12178 4.86468C9.34334 4.4499 9.56371 4.01022 9.78509 3.56857C9.80429 3.53024 9.82351 3.49191 9.84273 3.45357C10.1423 2.91321 10.4727 2.34204 10.9235 1.80168C11.916 0.660756 13.2669 0 14.769 0C16.2403 0 17.622 0.660756 18.5837 1.86328C19.0229 2.35747 19.311 2.87743 19.5872 3.37603C19.6131 3.42261 19.6388 3.469 19.6645 3.51517C19.6837 3.55345 19.7029 3.59174 19.722 3.63C19.9434 4.07172 20.1638 4.51144 20.3854 4.92627L20.475 5.10686C22.8171 9.61176 25.0401 14.1769 27.112 18.6818L27.1414 18.7112C27.255 18.9693 27.3768 19.2364 27.5025 19.5122C27.6106 19.7493 27.7216 19.9928 27.8329 20.2426C27.934 20.4656 28.0357 20.7159 28.1372 20.9657ZM26.7214 24.2968C26.5114 25.8591 25.4601 27.21 23.9888 27.8105C23.2678 28.1101 22.4867 28.2011 21.7055 28.1101C20.9552 28.0205 20.2034 27.7797 19.4237 27.3304C18.343 26.7284 17.2608 25.7989 15.9995 24.4172C17.9818 21.9841 19.1829 19.7625 19.6337 17.7802C19.8437 16.8493 19.8745 16.0079 19.7835 15.2268C19.6631 14.4764 19.3929 13.7849 18.9729 13.1843C18.042 11.8334 16.4797 11.0523 14.7382 11.0523C12.9967 11.0523 11.4344 11.8628 10.5035 13.1843C10.0835 13.7849 9.81334 14.4764 9.69294 15.2268C9.57255 16.0079 9.60335 16.8787 9.84273 17.7802C10.2935 19.7625 11.524 22.0149 13.4769 24.4466C12.245 25.8283 11.1348 26.7592 10.0527 27.3598C9.27157 27.8105 8.52122 28.0513 7.77087 28.1409C6.99672 28.2277 6.21418 28.1241 5.48902 27.8413C4.01772 27.2408 2.96639 25.8885 2.75641 24.3276C2.66681 23.5772 2.72701 22.8269 3.02659 21.9855C3.08844 21.7778 3.17964 21.5707 3.27947 21.344C3.32425 21.2423 3.37078 21.1366 3.41716 21.0252C3.6106 20.5829 3.83016 20.1144 4.0507 19.6439L4.05071 19.6439L4.10732 19.5231L4.13811 19.4629C6.20998 14.9874 8.43303 10.4223 10.7457 5.9776L10.8353 5.79701C10.9581 5.56779 11.0806 5.33018 11.203 5.09256L11.2031 5.09242L11.2031 5.09234C11.3207 4.86421 11.4383 4.63606 11.5562 4.41531C11.797 3.93514 12.0672 3.48437 12.3976 3.09379C13.0289 2.37284 13.8689 1.98227 14.7998 1.98227C15.7307 1.98227 16.5721 2.37284 17.202 3.09379C17.5324 3.48437 17.8026 3.93514 18.0434 4.41531C18.1612 4.63588 18.2787 4.8635 18.3962 5.0911L18.3963 5.09136C18.5189 5.3288 18.6414 5.56622 18.7643 5.79561L18.8553 5.9762C21.1372 10.4503 23.3602 15.0154 25.4321 19.4909V19.5203C25.554 19.7633 25.6679 20.0221 25.7818 20.2807L25.7819 20.2808C25.893 20.5331 26.004 20.7853 26.1222 21.0224C26.1696 21.1366 26.2171 21.2446 26.2627 21.3484L26.2628 21.3485C26.3615 21.573 26.4516 21.7779 26.5128 21.9827C26.7522 22.7653 26.8418 23.5156 26.7214 24.2968ZM14.7382 22.8843C13.1171 20.8418 12.0658 18.9197 11.7046 17.2986C11.5548 16.6071 11.524 16.0065 11.615 15.4662C11.6752 14.986 11.8558 14.5646 12.0952 14.2049C12.6663 13.3943 13.6267 12.8833 14.7382 12.8833C15.8497 12.8833 16.8409 13.3649 17.3812 14.2049C17.622 14.566 17.8012 14.986 17.8614 15.4662C17.951 16.0065 17.9216 16.6379 17.7718 17.2986C17.412 18.8903 16.3607 20.8124 14.7382 22.8843Z" fill="#E0565B"/>
</svg>
