<svg width="362" height="28" viewBox="0 0 362 28" fill="none" xmlns="http://www.w3.org/2000/svg">
<g clip-path="url(#clip0_1902_13793)">
<path d="M239.68 25.6669L237.832 25.71C237.793 25.7108 237.754 25.7038 237.718 25.6895C237.682 25.6752 237.649 25.6539 237.622 25.6268C237.594 25.5996 237.572 25.5672 237.556 25.5314C237.541 25.4956 237.533 25.4572 237.533 25.4184V23.5202C237.533 23.2108 237.41 22.914 237.192 22.6952C236.973 22.4764 236.676 22.3535 236.367 22.3535C236.057 22.3535 235.76 22.4764 235.542 22.6952C235.323 22.914 235.2 23.2108 235.2 23.5202V25.717C235.2 26.3226 235.44 26.9033 235.869 27.3315C236.297 27.7596 236.878 28.0002 237.483 28.0002H239.68C239.989 28.0002 240.286 27.8773 240.505 27.6585C240.724 27.4397 240.847 27.1429 240.847 26.8335C240.847 26.5241 240.724 26.2274 240.505 26.0086C240.286 25.7898 239.989 25.6669 239.68 25.6669Z" fill="white"/>
<path d="M236.367 5.64667C236.676 5.64667 236.973 5.52375 237.192 5.30496C237.41 5.08616 237.533 4.78942 237.533 4.48L237.489 2.632C237.488 2.59315 237.495 2.55454 237.509 2.51842C237.524 2.48229 237.545 2.44937 237.572 2.42157C237.599 2.39377 237.632 2.37166 237.668 2.35651C237.703 2.34136 237.742 2.33348 237.781 2.33333H239.68C239.989 2.33333 240.286 2.21042 240.505 1.99162C240.724 1.77283 240.847 1.47609 240.847 1.16667C240.847 0.857247 240.724 0.560501 240.505 0.341709C240.286 0.122916 239.989 0 239.68 0L237.482 0C236.877 0 236.296 0.240424 235.868 0.668382C235.44 1.09634 235.2 1.67678 235.2 2.282V4.48C235.2 4.78942 235.323 5.08616 235.542 5.30496C235.76 5.52375 236.057 5.64667 236.367 5.64667Z" fill="white"/>
<path d="M260.917 0H258.72C258.411 0 258.114 0.122916 257.895 0.341709C257.676 0.560501 257.553 0.857247 257.553 1.16667C257.553 1.47609 257.676 1.77283 257.895 1.99162C258.114 2.21042 258.411 2.33333 258.72 2.33333L260.568 2.29017C260.607 2.28939 260.645 2.29636 260.682 2.31065C260.718 2.32495 260.751 2.34629 260.778 2.37344C260.806 2.40058 260.828 2.43299 260.844 2.46877C260.859 2.50454 260.867 2.54298 260.867 2.58183V4.48C260.867 4.78942 260.99 5.08616 261.208 5.30496C261.427 5.52375 261.724 5.64667 262.033 5.64667C262.343 5.64667 262.64 5.52375 262.858 5.30496C263.077 5.08616 263.2 4.78942 263.2 4.48V2.28317C263.2 1.67763 262.959 1.0969 262.531 0.668724C262.103 0.240547 261.522 0 260.917 0V0Z" fill="white"/>
<path d="M262.033 22.3535C261.724 22.3535 261.427 22.4764 261.208 22.6952C260.99 22.914 260.867 23.2108 260.867 23.5202L260.911 25.3682C260.912 25.407 260.905 25.4456 260.891 25.4818C260.876 25.5179 260.855 25.5508 260.828 25.5786C260.801 25.6064 260.768 25.6285 260.732 25.6437C260.697 25.6588 260.658 25.6667 260.619 25.6669H258.72C258.411 25.6669 258.114 25.7898 257.895 26.0086C257.676 26.2274 257.553 26.5241 257.553 26.8335C257.553 27.1429 257.676 27.4397 257.895 27.6585C258.114 27.8773 258.411 28.0002 258.72 28.0002H260.918C261.523 28.0002 262.104 27.7598 262.532 27.3318C262.96 26.9039 263.2 26.3234 263.2 25.7182V23.5202C263.2 23.2108 263.077 22.914 262.858 22.6952C262.64 22.4764 262.343 22.3535 262.033 22.3535Z" fill="white"/>
<path d="M244.533 5.25H241.617C241.294 5.25 241.033 5.51117 241.033 5.83333V8.75C241.033 9.07217 241.294 9.33333 241.617 9.33333H244.533C244.855 9.33333 245.117 9.07217 245.117 8.75V5.83333C245.117 5.51117 244.855 5.25 244.533 5.25Z" fill="white"/>
<path d="M256.783 5.25H253.867C253.544 5.25 253.283 5.51117 253.283 5.83333V8.75C253.283 9.07217 253.544 9.33333 253.867 9.33333H256.783C257.105 9.33333 257.367 9.07217 257.367 8.75V5.83333C257.367 5.51117 257.105 5.25 256.783 5.25Z" fill="white"/>
<path d="M256.783 18.667H253.867C253.544 18.667 253.283 18.9282 253.283 19.2503V22.167C253.283 22.4892 253.544 22.7503 253.867 22.7503H256.783C257.105 22.7503 257.367 22.4892 257.367 22.167V19.2503C257.367 18.9282 257.105 18.667 256.783 18.667Z" fill="white"/>
<path d="M244.533 18.667H241.617C241.294 18.667 241.033 18.9282 241.033 19.2503V22.167C241.033 22.4892 241.294 22.7503 241.617 22.7503H244.533C244.855 22.7503 245.117 22.4892 245.117 22.167V19.2503C245.117 18.9282 244.855 18.667 244.533 18.667Z" fill="white"/>
<path d="M247.45 9.63783C247.682 9.63783 247.905 9.54565 248.069 9.38155C248.233 9.21746 248.325 8.9949 248.325 8.76283V7.29167C248.325 7.21431 248.356 7.14013 248.41 7.08543C248.465 7.03073 248.539 7 248.617 7H250.871C251.103 7 251.325 6.90781 251.489 6.74372C251.653 6.57962 251.746 6.35706 251.746 6.125C251.746 5.89294 251.653 5.67038 251.489 5.50628C251.325 5.34219 251.103 5.25 250.871 5.25H247.45C247.218 5.25 246.995 5.34219 246.831 5.50628C246.667 5.67038 246.575 5.89294 246.575 6.125V8.76283C246.575 8.9949 246.667 9.21746 246.831 9.38155C246.995 9.54565 247.218 9.63783 247.45 9.63783Z" fill="white"/>
<path d="M250.95 8.31934C250.718 8.31934 250.495 8.41152 250.331 8.57562C250.167 8.73971 250.075 8.96227 250.075 9.19434V13.1003C250.075 13.3324 250.167 13.555 250.331 13.7191C250.495 13.8832 250.718 13.9753 250.95 13.9753C251.182 13.9753 251.405 13.8832 251.569 13.7191C251.733 13.555 251.825 13.3324 251.825 13.1003V9.19434C251.825 8.96227 251.733 8.73971 251.569 8.57562C251.405 8.41152 251.182 8.31934 250.95 8.31934Z" fill="white"/>
<path d="M247.45 16.9167C247.682 16.9167 247.905 16.8245 248.069 16.6604C248.233 16.4963 248.325 16.2738 248.325 16.0417V13.2266C248.325 12.9945 248.233 12.7719 248.069 12.6078C247.905 12.4438 247.682 12.3516 247.45 12.3516C247.218 12.3516 246.995 12.4438 246.831 12.6078C246.667 12.7719 246.575 12.9945 246.575 13.2266V14.8751C246.575 14.9524 246.544 15.0266 246.49 15.0813C246.435 15.136 246.361 15.1667 246.283 15.1667H241.617C241.385 15.1667 241.162 15.2589 240.998 15.423C240.834 15.5871 240.742 15.8097 240.742 16.0417C240.742 16.2738 240.834 16.4963 240.998 16.6604C241.162 16.8245 241.385 16.9167 241.617 16.9167H247.45Z" fill="white"/>
<path d="M250.871 20.9997H248.617C248.539 20.9997 248.465 20.969 248.41 20.9143C248.356 20.8596 248.325 20.7854 248.325 20.7081V19.0596C248.325 18.8275 248.233 18.6049 248.069 18.4409C247.905 18.2768 247.682 18.1846 247.45 18.1846C247.218 18.1846 246.995 18.2768 246.831 18.4409C246.667 18.6049 246.575 18.8275 246.575 19.0596V21.8747C246.575 22.1068 246.667 22.3294 246.831 22.4935C246.995 22.6575 247.218 22.7497 247.45 22.7497H250.871C251.103 22.7497 251.325 22.6575 251.489 22.4935C251.653 22.3294 251.746 22.1068 251.746 21.8747C251.746 21.6427 251.653 21.4201 251.489 21.256C251.325 21.0919 251.103 20.9997 250.871 20.9997V20.9997Z" fill="white"/>
<path d="M241.617 12.833H243.95C244.182 12.833 244.405 12.7408 244.569 12.5767C244.733 12.4126 244.825 12.1901 244.825 11.958C244.825 11.7259 244.733 11.5034 244.569 11.3393C244.405 11.1752 244.182 11.083 243.95 11.083H241.617C241.385 11.083 241.162 11.1752 240.998 11.3393C240.834 11.5034 240.742 11.7259 240.742 11.958C240.742 12.1901 240.834 12.4126 240.998 12.5767C241.162 12.7408 241.385 12.833 241.617 12.833Z" fill="white"/>
<path d="M253.867 12.833H256.783C257.015 12.833 257.238 12.7408 257.402 12.5767C257.566 12.4126 257.658 12.1901 257.658 11.958C257.658 11.7259 257.566 11.5034 257.402 11.3393C257.238 11.1752 257.015 11.083 256.783 11.083H253.867C253.635 11.083 253.412 11.1752 253.248 11.3393C253.084 11.5034 252.992 11.7259 252.992 11.958C252.992 12.1901 253.084 12.4126 253.248 12.5767C253.412 12.7408 253.635 12.833 253.867 12.833Z" fill="white"/>
<path d="M256.783 15.167H250.367C250.135 15.167 249.912 15.2592 249.748 15.4233C249.584 15.5874 249.492 15.8099 249.492 16.042C249.492 16.2741 249.584 16.4966 249.748 16.6607C249.912 16.8248 250.135 16.917 250.367 16.917H256.783C257.015 16.917 257.238 16.8248 257.402 16.6607C257.566 16.4966 257.658 16.2741 257.658 16.042C257.658 15.8099 257.566 15.5874 257.402 15.4233C257.238 15.2592 257.015 15.167 256.783 15.167Z" fill="white"/>
</g>
<g clip-path="url(#clip1_1902_13793)">
<path d="M335.242 4.08431C336.369 4.08431 337.283 3.17023 337.283 2.04264C337.283 0.915062 336.369 0.000976562 335.242 0.000976562C334.114 0.000976562 333.2 0.915062 333.2 2.04264C333.2 3.17023 334.114 4.08431 335.242 4.08431Z" fill="white"/>
<path d="M341.075 4.08431C342.203 4.08431 343.117 3.17022 343.117 2.04264C343.117 0.915062 342.203 0.000976562 341.075 0.000976562C339.947 0.000976562 339.033 0.915062 339.033 2.04264C339.033 3.17022 339.947 4.08431 341.075 4.08431Z" fill="white"/>
<path d="M346.908 4.08431C348.036 4.08431 348.95 3.17022 348.95 2.04264C348.95 0.915062 348.036 0.000976562 346.908 0.000976562C345.781 0.000976562 344.867 0.915062 344.867 2.04264C344.867 3.17022 345.781 4.08431 346.908 4.08431Z" fill="white"/>
<path d="M335.242 9.91732C336.369 9.91732 337.283 9.00323 337.283 7.87565C337.283 6.74807 336.369 5.83398 335.242 5.83398C334.114 5.83398 333.2 6.74807 333.2 7.87565C333.2 9.00323 334.114 9.91732 335.242 9.91732Z" fill="white"/>
<path d="M341.075 9.91732C342.203 9.91732 343.117 9.00323 343.117 7.87565C343.117 6.74807 342.203 5.83398 341.075 5.83398C339.947 5.83398 339.033 6.74807 339.033 7.87565C339.033 9.00323 339.947 9.91732 341.075 9.91732Z" fill="white"/>
<path d="M346.908 9.91732C348.036 9.91732 348.95 9.00323 348.95 7.87565C348.95 6.74807 348.036 5.83398 346.908 5.83398C345.781 5.83398 344.867 6.74807 344.867 7.87565C344.867 9.00323 345.781 9.91732 346.908 9.91732Z" fill="white"/>
<path d="M335.242 15.7513C336.369 15.7513 337.283 14.8372 337.283 13.7096C337.283 12.5821 336.369 11.668 335.242 11.668C334.114 11.668 333.2 12.5821 333.2 13.7096C333.2 14.8372 334.114 15.7513 335.242 15.7513Z" fill="white"/>
<path d="M341.075 15.7513C342.203 15.7513 343.117 14.8372 343.117 13.7096C343.117 12.5821 342.203 11.668 341.075 11.668C339.947 11.668 339.033 12.5821 339.033 13.7096C339.033 14.8372 339.947 15.7513 341.075 15.7513Z" fill="white"/>
<path d="M355.95 19.8333H353.033V12.8333C353.033 12.2145 352.788 11.621 352.35 11.1834C351.912 10.7458 351.319 10.5 350.7 10.5C350.081 10.5 349.488 10.7458 349.05 11.1834C348.613 11.621 348.367 12.2145 348.367 12.8333V22.6835L346.661 20.6313C346.262 20.168 345.697 19.8799 345.087 19.8291C344.478 19.7783 343.872 19.9688 343.402 20.3597C342.932 20.7506 342.633 21.3106 342.572 21.9191C342.51 22.5276 342.69 23.136 343.072 23.6133L346.543 27.7888C346.598 27.8549 346.667 27.9081 346.744 27.9446C346.822 27.9811 346.907 28 346.992 28H360.617C360.771 28 360.92 27.9385 361.029 27.8291C361.139 27.7197 361.2 27.5714 361.2 27.4167V25.0833C361.2 23.6909 360.647 22.3556 359.662 21.371C358.678 20.3865 357.342 19.8333 355.95 19.8333Z" fill="white"/>
</g>
<path d="M10.7942 24.4998C16.7557 24.4998 21.5884 19.6421 21.5884 13.6498C21.5884 7.65752 16.7557 2.7998 10.7942 2.7998C4.83273 2.7998 0 7.65752 0 13.6498C0 19.6421 4.83273 24.4998 10.7942 24.4998Z" fill="#EE0005"/>
<path d="M24.2053 24.4998C30.1667 24.4998 34.9995 19.6421 34.9995 13.6498C34.9995 7.65752 30.1667 2.7998 24.2053 2.7998C18.2438 2.7998 13.4111 7.65752 13.4111 13.6498C13.4111 19.6421 18.2438 24.4998 24.2053 24.4998Z" fill="#F9A000"/>
<path d="M13.4114 13.6498C13.4114 17.0949 15.0091 20.1646 17.5 22.1521C19.9909 20.1645 21.5887 17.0949 21.5887 13.6498C21.5887 10.2047 19.991 7.13493 17.5 5.14746C15.0092 7.13509 13.4114 10.2048 13.4114 13.6498Z" fill="#FF6300"/>
<path d="M127.073 22.6414L130.13 6.14941H134.908L131.946 22.6414H127.073Z" fill="#FDFDFF"/>
<path d="M127.073 22.6414L130.99 6.14941H134.908L131.946 22.6414H127.073Z" fill="#FDFDFF"/>
<path d="M149.24 6.33258C148.285 5.96609 146.756 5.59961 144.845 5.59961C140.067 5.59961 136.627 7.89014 136.627 11.1885C136.627 13.6623 139.016 14.945 140.927 15.7696C142.838 16.5942 143.411 17.1439 143.411 17.8769C143.411 18.9763 141.883 19.5261 140.545 19.5261C138.634 19.5261 137.583 19.2512 135.958 18.6098L135.289 18.335L134.621 22.0915C135.767 22.5496 137.869 23.0077 140.067 23.0077C145.131 23.0077 148.476 20.7171 148.476 17.2355C148.476 15.3115 147.234 13.8455 144.367 12.6545C142.647 11.8299 141.596 11.3718 141.596 10.5472C141.596 9.81419 142.456 9.08122 144.367 9.08122C145.991 9.08122 147.138 9.35608 147.998 9.72257L148.476 9.90581L149.24 6.33258V6.33258Z" fill="#FDFDFF"/>
<path d="M149.24 6.33258C148.285 5.96609 146.756 5.59961 144.845 5.59961C140.067 5.59961 137.487 7.89014 137.487 11.1885C137.487 13.6623 139.016 14.945 140.927 15.7696C142.838 16.5942 143.411 17.1439 143.411 17.8769C143.411 18.9763 141.883 19.5261 140.545 19.5261C138.634 19.5261 137.583 19.2512 135.958 18.6098L135.289 18.335L134.621 22.0915C135.767 22.5496 137.869 23.0077 140.067 23.0077C145.131 23.0077 148.476 20.7171 148.476 17.2355C148.476 15.3115 147.234 13.8455 144.367 12.6545C142.647 11.8299 141.596 11.3718 141.596 10.5472C141.596 9.81419 142.456 9.08122 144.367 9.08122C145.991 9.08122 147.138 9.35608 147.998 9.72257L148.476 9.90581L149.24 6.33258V6.33258Z" fill="#FDFDFF"/>
<path fill-rule="evenodd" clip-rule="evenodd" d="M154.975 7.3405C155.453 6.24104 156.313 6.14941 157.46 6.14941H161.186L165.199 22.6414H160.613L160.04 19.8927H153.924L152.969 22.6414H147.809L154.975 7.3405ZM157.17 12.2885C157.17 12.2885 155.546 16.3198 155.259 17.1444V17.236H159.273C159.081 16.3198 158.126 12.1969 158.126 12.1969L157.839 10.6393C157.553 11.2807 157.17 12.2885 157.17 12.2885Z" fill="#FDFDFF"/>
<path fill-rule="evenodd" clip-rule="evenodd" d="M156.122 7.3405C156.6 6.24104 157.46 6.14941 158.606 6.14941H161.186L165.199 22.6414H160.613L160.04 19.8927H153.924L152.969 22.6414H147.809L156.122 7.3405ZM157.17 12.2885C157.17 12.2885 155.642 16.2282 155.259 17.1444V17.236H159.273C159.081 16.3198 158.126 12.1969 158.126 12.1969L157.839 10.6393C157.553 11.2807 157.17 12.2885 157.17 12.2885Z" fill="#FDFDFF"/>
<path d="M118.281 17.6939L117.804 15.3117C116.944 12.5631 114.173 9.53958 111.115 8.07364L115.415 22.7331H120.575L128.314 6.24121H123.154L118.281 17.6939Z" fill="#FDFDFF"/>
<path d="M118.281 17.6939L117.804 15.3117C116.944 12.5631 114.173 9.53958 111.115 8.07364L115.415 22.7331H120.575L128.314 6.24121H124.11L118.281 17.6939Z" fill="#FDFDFF"/>
<path d="M104.999 6.14941L105.859 6.33266C111.975 7.70698 116.179 11.1886 117.803 15.3115L116.084 7.52373C115.797 6.42428 114.937 6.14941 113.886 6.14941H104.999V6.14941Z" fill="#FDFDFF"/>
<path d="M104.999 6.14941V6.14941C111.115 7.52373 116.179 11.097 117.803 15.2199L116.179 8.71481C115.892 7.61536 114.937 6.97401 113.886 6.97401L104.999 6.14941Z" fill="#FDFDFF"/>
<path d="M104.999 6.14941V6.14941C111.115 7.52373 116.179 11.097 117.803 15.2199L116.657 11.6467C116.37 10.5472 115.988 9.44778 114.65 8.98968L104.999 6.14941Z" fill="#FDFDFF"/>
<path d="M123.059 17.1436L119.81 14.0285L118.282 17.5101L117.899 15.2195C117.039 12.4709 114.268 9.44739 111.211 7.98145L115.511 22.6409H120.67L123.059 17.1436Z" fill="#FDFDFF"/>
<path d="M131.946 22.6407L127.837 18.6094L127.072 22.6407H131.946Z" fill="#FDFDFF"/>
<path d="M142.934 16.96V16.96C143.316 17.3264 143.508 17.6013 143.412 17.9678C143.412 19.0673 141.883 19.617 140.545 19.617C138.634 19.617 137.583 19.3421 135.959 18.7008L135.29 18.4259L134.621 22.1824C135.768 22.6405 137.87 23.0986 140.068 23.0986C143.125 23.0986 145.61 22.274 147.043 20.8081L142.934 16.96Z" fill="#FDFDFF"/>
<path d="M148.476 22.6401H152.967L153.922 19.8915H160.037L160.611 22.6401H165.197L163.573 15.9517L157.84 10.6377L158.126 12.1036C158.126 12.1036 159.082 16.2266 159.273 17.1428H155.26C155.642 16.2266 157.171 12.2869 157.171 12.2869C157.171 12.2869 157.553 11.279 157.84 10.6377" fill="#FDFDFF"/>
<defs>
<clipPath id="clip0_1902_13793">
<rect width="28" height="28" fill="white" transform="translate(235.2)"/>
</clipPath>
<clipPath id="clip1_1902_13793">
<rect width="28" height="28" fill="white" transform="translate(333.2)"/>
</clipPath>
</defs>
</svg>
